<svg id="Layer_1" data-name="Layer 1" xmlns="http://www.w3.org/2000/svg" viewBox="0 0 463.63 148"><defs><style>.cls-1{fill:#fff;}</style></defs><title>Capaciti_logo</title><path class="cls-1" d="M181,64.4c0-6.61,5.16-11.13,11.81-11.13a10.19,10.19,0,0,1,9.28,5.26L198,60.46a6,6,0,0,0-5.22-3.13,7.07,7.07,0,0,0,0,14.13A6,6,0,0,0,198,68.33l4.06,1.91a10.27,10.27,0,0,1-9.28,5.28C186.12,75.52,181,71,181,64.4" transform="translate(-19.64 -22)"/><path class="cls-1" d="M214.48,58.21,211,67.46H218Zm6.13,16.93-1.37-3.65h-9.51l-1.4,3.65H203l8.57-21.52h5.92L226,75.14Z" transform="translate(-19.64 -22)"/><path class="cls-1" d="M241.72,60.56c0-1.81-1.4-2.9-3.26-2.9h-5v5.8h5a3,3,0,0,0,3.26-2.9m-13,14.58V53.62h10.37c4.83,0,7.45,3.17,7.45,6.94s-2.66,6.94-7.45,6.94h-5.65v7.64Z" transform="translate(-19.64 -22)"/><polygon class="cls-1" points="230.49 53.14 230.49 31.63 246.18 31.63 246.18 35.66 235.21 35.66 235.21 40.2 245.95 40.2 245.95 44.24 235.21 44.24 235.21 49.11 246.18 49.11 246.18 53.14 230.49 53.14"/><rect class="cls-1" x="259.72" y="31.63" width="4.72" height="21.51"/><polygon class="cls-1" points="284.79 53.14 274.21 39.11 274.21 53.14 269.49 53.14 269.49 31.63 274.35 31.63 284.62 45.14 284.62 31.63 289.35 31.63 289.35 53.14 284.79 53.14"/><polygon class="cls-1" points="309.7 53.14 299.12 39.11 299.12 53.14 294.4 53.14 294.4 31.63 299.25 31.63 309.53 45.14 309.53 31.63 314.25 31.63 314.25 53.14 309.7 53.14"/><path class="cls-1" d="M356.21,64.4c0-4-2.66-7.07-6.75-7.07s-6.72,3-6.72,7.07,2.63,7.06,6.72,7.06,6.75-3.06,6.75-7.06m-18.33,0c0-6.48,4.89-11.13,11.58-11.13s11.61,4.65,11.61,11.13-4.89,11.12-11.61,11.12-11.58-4.64-11.58-11.12" transform="translate(-19.64 -22)"/><polygon class="cls-1" points="350.96 53.14 342.38 31.63 347.77 31.63 353.92 48.17 360.04 31.63 365.43 31.63 356.88 53.14 350.96 53.14"/><path class="cls-1" d="M395.41,58.21,392,67.46h6.92Zm6.12,16.93-1.36-3.65h-9.51l-1.4,3.65h-5.39l8.58-21.52h5.93l8.54,21.52Z" transform="translate(-19.64 -22)"/><polygon class="cls-1" points="393 53.14 393 35.66 386.51 35.66 386.51 31.63 404.2 31.63 404.2 35.66 397.75 35.66 397.75 53.14 393 53.14"/><rect class="cls-1" x="407.89" y="31.63" width="4.72" height="21.51"/><path class="cls-1" d="M454.57,64.4c0-4-2.66-7.07-6.75-7.07s-6.72,3-6.72,7.07,2.63,7.06,6.72,7.06,6.75-3.06,6.75-7.06m-18.32,0c0-6.48,4.89-11.13,11.57-11.13s11.61,4.65,11.61,11.13-4.89,11.12-11.61,11.12-11.57-4.64-11.57-11.12" transform="translate(-19.64 -22)"/><polygon class="cls-1" points="459.07 53.14 448.5 39.11 448.5 53.14 443.77 53.14 443.77 31.63 448.63 31.63 458.9 45.14 458.9 31.63 463.63 31.63 463.63 53.14 459.07 53.14"/><path class="cls-1" d="M189.11,92.35c1.87-.87,3.33-1.81,3.33-3.39a1.81,1.81,0,0,0-2-1.81,2.27,2.27,0,0,0-2.33,2.29,6.59,6.59,0,0,0,1,2.91m2.63,9.74c-1-1.07-1.93-2.1-2.46-2.74-.73-.87-1.5-1.84-2.23-2.84a3.85,3.85,0,0,0-1.93,3.29,3.31,3.31,0,0,0,3.43,3.38,5.65,5.65,0,0,0,3.19-1.09m3.92,3.93c-.46-.42-1-1-1.66-1.61a10,10,0,0,1-6.05,2c-4.06,0-7.32-2.06-7.32-6.22,0-3.26,2.23-5,4.76-6.2a10.11,10.11,0,0,1-1.47-4.64c0-2.9,2.66-5.16,6.36-5.16,3.12,0,5.82,1.67,5.82,4.55,0,3.28-2.73,4.67-5.46,5.9.67.87,1.37,1.67,1.93,2.32s1.27,1.48,1.86,2.19a17.06,17.06,0,0,0,2-4.16l3.4,1.52a28.12,28.12,0,0,1-3.1,5.19c1.33,1.39,2.73,2.81,4.29,4.32Z" transform="translate(-19.64 -22)"/><polygon class="cls-1" points="198.83 84.02 198.83 66.54 192.34 66.54 192.34 62.51 210.04 62.51 210.04 66.54 203.59 66.54 203.59 84.02 198.83 84.02"/><polygon class="cls-1" points="213.73 84.02 213.73 62.51 229.43 62.51 229.43 66.54 218.45 66.54 218.45 71.09 229.19 71.09 229.19 75.12 218.45 75.12 218.45 79.99 229.43 79.99 229.43 84.02 213.73 84.02"/><path class="cls-1" d="M252.36,95.28c0-6.61,5.15-11.13,11.81-11.13a10.19,10.19,0,0,1,9.27,5.26l-4.05,1.94a6,6,0,0,0-5.22-3.13,7.07,7.07,0,0,0,0,14.13,6,6,0,0,0,5.22-3.13l4.05,1.9a10.23,10.23,0,0,1-9.27,5.29c-6.66,0-11.81-4.52-11.81-11.13" transform="translate(-19.64 -22)"/><polygon class="cls-1" points="272.49 84.02 272.49 74.99 262.01 74.99 262.01 84.02 257.29 84.02 257.29 62.51 262.01 62.51 262.01 70.96 272.49 70.96 272.49 62.51 277.24 62.51 277.24 84.02 272.49 84.02"/><polygon class="cls-1" points="297.56 84.02 286.98 69.99 286.98 84.02 282.26 84.02 282.26 62.51 287.12 62.51 297.39 76.03 297.39 62.51 302.12 62.51 302.12 84.02 297.56 84.02"/><path class="cls-1" d="M344.07,95.28c0-4-2.66-7.06-6.75-7.06s-6.72,3-6.72,7.06,2.63,7.07,6.72,7.07,6.75-3.07,6.75-7.07m-18.32,0c0-6.48,4.89-11.13,11.57-11.13s11.61,4.65,11.61,11.13-4.89,11.13-11.61,11.13-11.57-4.64-11.57-11.13" transform="translate(-19.64 -22)"/><polygon class="cls-1" points="333.27 84.02 333.27 62.51 338 62.51 338 79.99 347.37 79.99 347.37 84.02 333.27 84.02"/><path class="cls-1" d="M387.34,95.28c0-4-2.66-7.06-6.76-7.06s-6.71,3-6.71,7.06,2.63,7.07,6.71,7.07,6.76-3.07,6.76-7.07m-18.33,0c0-6.48,4.89-11.13,11.57-11.13s11.61,4.65,11.61,11.13-4.89,11.13-11.61,11.13S369,101.77,369,95.28" transform="translate(-19.64 -22)"/><path class="cls-1" d="M395.11,95.28c0-6.8,5.33-11.13,11.81-11.13A10.43,10.43,0,0,1,416.1,89L412.18,91a6.33,6.33,0,0,0-5.26-2.81,7.07,7.07,0,0,0,0,14.13,7.58,7.58,0,0,0,4.72-1.65V98.12h-5.85v-4h10.58v8.26a12.5,12.5,0,0,1-9.45,4.06c-6.48,0-11.81-4.39-11.81-11.16" transform="translate(-19.64 -22)"/><polygon class="cls-1" points="406.7 84.02 406.7 75.22 398.15 62.51 403.54 62.51 409.06 71.15 414.51 62.51 419.9 62.51 411.42 75.22 411.42 84.02 406.7 84.02"/><rect class="cls-1" x="162.38" y="93.39" width="4.72" height="21.51"/><polygon class="cls-1" points="187.46 114.91 176.88 100.88 176.88 114.91 172.16 114.91 172.16 93.39 177.01 93.39 187.29 106.91 187.29 93.39 192.02 93.39 192.02 114.91 187.46 114.91"/><rect class="cls-1" x="197.07" y="93.39" width="4.72" height="21.51"/><polygon class="cls-1" points="211.96 114.91 211.96 97.42 205.48 97.42 205.48 93.39 223.17 93.39 223.17 97.42 216.72 97.42 216.72 114.91 211.96 114.91"/><rect class="cls-1" x="226.86" y="93.39" width="4.72" height="21.51"/><path class="cls-1" d="M265.46,120,262,129.23h6.92Zm6.12,16.94-1.36-3.65H260.7l-1.39,3.65h-5.39l8.58-21.52h5.92L277,136.91Z" transform="translate(-19.64 -22)"/><polygon class="cls-1" points="263.04 114.91 263.04 97.42 256.55 97.42 256.55 93.39 274.25 93.39 274.25 97.42 267.8 97.42 267.8 114.91 263.04 114.91"/><rect class="cls-1" x="277.94" y="93.39" width="4.72" height="21.51"/><polygon class="cls-1" points="293.93 114.91 285.35 93.39 290.74 93.39 296.89 109.94 303.01 93.39 308.4 93.39 299.85 114.91 293.93 114.91"/><polygon class="cls-1" points="311.12 114.91 311.12 93.39 326.82 93.39 326.82 97.42 315.85 97.42 315.85 101.97 326.59 101.97 326.59 106 315.85 106 315.85 110.87 326.82 110.87 326.82 114.91 311.12 114.91"/><path class="cls-1" d="M98.33,26.81a4.82,4.82,0,1,1,4.81,4.81,4.81,4.81,0,0,1-4.81-4.81" transform="translate(-19.64 -22)"/><path class="cls-1" d="M76.53,27.5a4.82,4.82,0,1,1,4.82,4.82,4.82,4.82,0,0,1-4.82-4.82" transform="translate(-19.64 -22)"/><path class="cls-1" d="M55.92,34.71a4.82,4.82,0,1,1,4.82,4.81,4.81,4.81,0,0,1-4.82-4.81" transform="translate(-19.64 -22)"/><path class="cls-1" d="M38.5,47.88a4.82,4.82,0,1,1,4.82,4.81,4.82,4.82,0,0,1-4.82-4.81" transform="translate(-19.64 -22)"/><path class="cls-1" d="M26,65.86a4.82,4.82,0,1,1,4.82,4.81A4.82,4.82,0,0,1,26,65.86" transform="translate(-19.64 -22)"/><path class="cls-1" d="M19.64,86.78a4.82,4.82,0,1,1,4.82,4.81,4.81,4.81,0,0,1-4.82-4.81" transform="translate(-19.64 -22)"/><path class="cls-1" d="M20.25,108.48a4.82,4.82,0,1,1,4.81,4.81,4.81,4.81,0,0,1-4.81-4.81" transform="translate(-19.64 -22)"/><path class="cls-1" d="M27.43,129a4.82,4.82,0,1,1,4.81,4.81A4.81,4.81,0,0,1,27.43,129" transform="translate(-19.64 -22)"/><path class="cls-1" d="M40.75,146.43a4.82,4.82,0,1,1,4.81,4.81,4.81,4.81,0,0,1-4.81-4.81" transform="translate(-19.64 -22)"/><path class="cls-1" d="M58.65,158.79a4.82,4.82,0,1,1,4.82,4.81,4.81,4.81,0,0,1-4.82-4.81" transform="translate(-19.64 -22)"/><path class="cls-1" d="M79.67,165.19A4.82,4.82,0,1,1,84.49,170a4.81,4.81,0,0,1-4.82-4.81" transform="translate(-19.64 -22)"/><path class="cls-1" d="M101.39,164.58a4.82,4.82,0,1,1,4.81,4.82,4.81,4.81,0,0,1-4.81-4.82" transform="translate(-19.64 -22)"/><path class="cls-1" d="M122.06,157.49a4.82,4.82,0,1,1,4.81,4.82,4.81,4.81,0,0,1-4.81-4.82" transform="translate(-19.64 -22)"/><path class="cls-1" d="M139.45,144.24a4.82,4.82,0,1,1,4.81,4.81,4.81,4.81,0,0,1-4.81-4.81" transform="translate(-19.64 -22)"/><path class="cls-1" d="M151.87,126.37a4.82,4.82,0,1,1,4.82,4.81,4.81,4.81,0,0,1-4.82-4.81" transform="translate(-19.64 -22)"/><path class="cls-1" d="M158,105.45a4.82,4.82,0,1,1,4.82,4.81,4.81,4.81,0,0,1-4.82-4.81" transform="translate(-19.64 -22)"/><path class="cls-1" d="M157.5,83.58a4.81,4.81,0,1,1,4.81,4.81,4.81,4.81,0,0,1-4.81-4.81" transform="translate(-19.64 -22)"/><rect class="cls-1" x="74.16" y="58.54" width="35.2" height="7.85"/><rect class="cls-1" x="87.72" y="58.54" width="8.24" height="35.18"/><rect class="cls-1" x="60.24" y="71.83" width="8.24" height="21.9"/><rect class="cls-1" x="60.24" y="58.54" width="8.24" height="7.85"/><rect class="cls-1" x="114.65" y="71.83" width="8.24" height="21.9"/><rect class="cls-1" x="114.65" y="58.54" width="8.24" height="7.85"/><path class="cls-1" d="M59.36,109a10.82,10.82,0,0,1,0-21.64,10.62,10.62,0,0,1,8.42,4.21l6.47-4.11a18.2,18.2,0,0,0-14.89-7.78,18.5,18.5,0,0,0,0,37,18.19,18.19,0,0,0,14.73-7.57l-6.41-4.19A10.6,10.6,0,0,1,59.36,109" transform="translate(-19.64 -22)"/><rect class="cls-1" x="129.87" y="41.05" width="8.24" height="8.23"/><rect class="cls-1" x="113.39" y="25.67" width="8.24" height="8.23"/><rect class="cls-1" x="97.26" y="10.11" width="8.24" height="8.23"/></svg>